<svg xmlns="http://www.w3.org/2000/svg" width="1440" height="760" viewBox="0 0 1440 760" role="img" aria-labelledby="title desc">
  <title id="title">Signal-to-Proof architecture</title>
  <desc id="desc">Decision, economics, behavior, data, correlation, identification, evidence gates, causal inference, claim ceiling, and business action.</desc>
  <rect width="1440" height="760" fill="#f5f0e7"/>
  <text x="80" y="88" font-family="Arial, sans-serif" font-size="54" font-weight="700" fill="#161616">Signal-to-Proof</text>
  <text x="80" y="128" font-family="Arial, sans-serif" font-size="22" fill="#6a655d">Evidence-Gated Correlation &amp; Causality Modeling</text>
  <g font-family="Arial, sans-serif">
    <g transform="translate(80 190)">
      <rect width="220" height="104" rx="18" fill="#fffdf8" stroke="#d8d0c3"/>
      <text x="24" y="40" font-size="16" font-weight="700" fill="#b8322a">01 DECISION</text>
      <text x="24" y="72" font-size="22" font-weight="700" fill="#161616">Business question</text>
    </g>
    <text x="318" y="248" font-size="30" fill="#b8322a">→</text>
    <g transform="translate(350 190)">
      <rect width="220" height="104" rx="18" fill="#fffdf8" stroke="#d8d0c3"/>
      <text x="24" y="40" font-size="16" font-weight="700" fill="#b8322a">02 ECONOMICS</text>
      <text x="24" y="72" font-size="22" font-weight="700" fill="#161616">Value at risk</text>
    </g>
    <text x="588" y="248" font-size="30" fill="#b8322a">→</text>
    <g transform="translate(620 190)">
      <rect width="220" height="104" rx="18" fill="#fffdf8" stroke="#d8d0c3"/>
      <text x="24" y="40" font-size="16" font-weight="700" fill="#b8322a">03 BEHAVIOR</text>
      <text x="24" y="72" font-size="22" font-weight="700" fill="#161616">Product + UX signals</text>
    </g>
    <text x="858" y="248" font-size="30" fill="#b8322a">→</text>
    <g transform="translate(890 190)">
      <rect width="220" height="104" rx="18" fill="#fffdf8" stroke="#d8d0c3"/>
      <text x="24" y="40" font-size="16" font-weight="700" fill="#b8322a">04 DATA</text>
      <text x="24" y="72" font-size="22" font-weight="700" fill="#161616">Grain + joins + controls</text>
    </g>
    <text x="1128" y="248" font-size="30" fill="#b8322a">→</text>
    <g transform="translate(1160 190)">
      <rect width="220" height="104" rx="18" fill="#161616" stroke="#161616"/>
      <text x="24" y="40" font-size="16" font-weight="700" fill="#e25a50">05 MODEL</text>
      <text x="24" y="72" font-size="22" font-weight="700" fill="#ffffff">Correlation + controls</text>
    </g>

    <path d="M1270 294 L1270 365 L1130 365" fill="none" stroke="#b8322a" stroke-width="3"/>
    <polygon points="1128,365 1140,358 1140,372" fill="#b8322a"/>

    <g transform="translate(890 330)">
      <rect width="220" height="104" rx="18" fill="#fffdf8" stroke="#d8d0c3"/>
      <text x="24" y="40" font-size="16" font-weight="700" fill="#b8322a">06 IDENTIFICATION</text>
      <text x="24" y="72" font-size="22" font-weight="700" fill="#161616">Alternative explanations</text>
    </g>
    <text x="858" y="388" font-size="30" fill="#b8322a">←</text>
    <g transform="translate(620 330)">
      <rect width="220" height="104" rx="18" fill="#fffdf8" stroke="#d8d0c3"/>
      <text x="24" y="40" font-size="16" font-weight="700" fill="#b8322a">07 EVIDENCE GATES</text>
      <text x="24" y="72" font-size="22" font-weight="700" fill="#161616">Pass / warn / fail</text>
    </g>

    <path d="M730 434 L730 505" fill="none" stroke="#b8322a" stroke-width="3"/>
    <polygon points="730,512 723,500 737,500" fill="#b8322a"/>

    <g transform="translate(350 500)">
      <rect width="330" height="112" rx="18" fill="#fffdf8" stroke="#d8d0c3"/>
      <text x="24" y="40" font-size="16" font-weight="700" fill="#b8322a">ASSOCIATION PATH</text>
      <text x="24" y="74" font-size="22" font-weight="700" fill="#161616">Claim ceiling stays bounded</text>
    </g>
    <g transform="translate(760 500)">
      <rect width="330" height="112" rx="18" fill="#fffdf8" stroke="#d8d0c3"/>
      <text x="24" y="40" font-size="16" font-weight="700" fill="#b8322a">COUNTERFACTUAL PATH</text>
      <text x="24" y="74" font-size="22" font-weight="700" fill="#161616">Causal inference when earned</text>
    </g>

    <path d="M515 612 L515 665 L710 665" fill="none" stroke="#b8322a" stroke-width="3"/>
    <path d="M925 612 L925 665 L730 665" fill="none" stroke="#b8322a" stroke-width="3"/>
    <g transform="translate(560 630)">
      <rect width="320" height="86" rx="18" fill="#161616"/>
      <text x="160" y="35" text-anchor="middle" font-size="16" font-weight="700" fill="#e25a50">CLAIM + NEXT ACTION</text>
      <text x="160" y="63" text-anchor="middle" font-size="22" font-weight="700" fill="#ffffff">Scale · Test · Redesign · Stop</text>
    </g>
  </g>
</svg>
